<?xml version="1.0" encoding="UTF-8" standalone="no"?><!DOCTYPE svg PUBLIC "-//W3C//DTD SVG 1.1//EN" "http://www.w3.org/Graphics/SVG/1.1/DTD/svg11.dtd"><svg width="100%" height="100%" viewBox="0 0 500 500" version="1.1" xmlns="http://www.w3.org/2000/svg" xmlns:xlink="http://www.w3.org/1999/xlink" xml:space="preserve" xmlns:serif="http://www.serif.com/" style="fill-rule:evenodd;clip-rule:evenodd;stroke-linejoin:round;stroke-miterlimit:2;"><rect x="0" y="0" width="500" height="500"/><g><path d="M149.7,245.9c9.2,1.733 16.7,5.133 22.5,10.2c5.8,5.067 8.7,12.667 8.7,22.8c-0,14.8 -5.3,25.233 -15.9,31.3c-10.6,6.067 -25.433,9.1 -44.5,9.1l-44.6,-0l-0,-138.6l39.2,-0c19.467,-0 34.333,2.767 44.6,8.3c10.267,5.533 15.4,14.567 15.4,27.1c-0,8.133 -2.433,14.7 -7.3,19.7c-4.867,5 -10.9,8.367 -18.1,10.1Zm-41,-42l-0,32.2l12.2,-0c13.867,-0 20.8,-5.6 20.8,-16.8c-0,-5.6 -1.867,-9.567 -5.6,-11.9c-3.733,-2.333 -9.667,-3.5 -17.8,-3.5l-9.6,-0Zm12,91.6c8.667,-0 15.233,-1.3 19.7,-3.9c4.467,-2.6 6.7,-7.433 6.7,-14.5c-0,-12.8 -8,-19.2 -24,-19.2l-14.4,-0l-0,37.6l12,-0Z" style="fill:#fff;fill-rule:nonzero;"/><path d="M252.5,209.5l0,31.2l30.2,0l0,24.4l-30.2,0l0,31.2l-26.2,0l0,-31.2l-30.4,0l0,-24.4l30.4,0l0,-31.2l26.2,0Z" style="fill:#fff;fill-rule:nonzero;"/><path d="M361.5,177.3c19.733,0 35.1,6.333 46.1,19c11,12.667 16.5,30.533 16.5,53.6c-0,15.067 -2.5,28.067 -7.5,39c-5,10.933 -12.2,19.3 -21.6,25.1c-9.4,5.8 -20.567,8.7 -33.5,8.7c-12.933,0 -24.067,-2.867 -33.4,-8.6c-9.333,-5.733 -16.5,-14.033 -21.5,-24.9c-5,-10.867 -7.5,-23.967 -7.5,-39.3c0,-14.933 2.5,-27.867 7.5,-38.8c5,-10.933 12.167,-19.3 21.5,-25.1c9.333,-5.8 20.467,-8.7 33.4,-8.7Zm0,24c-9.467,0 -16.5,3.833 -21.1,11.5c-4.6,7.667 -6.9,20.033 -6.9,37.1c0,17.067 2.333,29.467 7,37.2c4.667,7.733 11.667,11.6 21,11.6c9.6,0 16.7,-3.833 21.3,-11.5c4.6,-7.667 6.9,-20.1 6.9,-37.3c0,-17.2 -2.333,-29.6 -7,-37.2c-4.667,-7.6 -11.733,-11.4 -21.2,-11.4Z" style="fill:#fff;fill-rule:nonzero;"/></g></svg>