<?xml version="1.0" encoding="UTF-8" standalone="no"?><!DOCTYPE svg PUBLIC "-//W3C//DTD SVG 1.1//EN" "http://www.w3.org/Graphics/SVG/1.1/DTD/svg11.dtd"><svg width="100%" height="100%" viewBox="0 0 500 250" version="1.1" xmlns="http://www.w3.org/2000/svg" xmlns:xlink="http://www.w3.org/1999/xlink" xml:space="preserve" xmlns:serif="http://www.serif.com/" style="fill-rule:evenodd;clip-rule:evenodd;stroke-linejoin:round;stroke-miterlimit:2;"><path d="M161.467,111.298c-0,-9.066 -8.698,-18.574 -23.817,-18.574c-16.954,-0 -35.568,12.483 -38.418,37.399c-2.913,25.159 12.676,36.339 28.389,36.339c15.713,-0 23.941,-6.148 32.355,-14.348c-7.236,-9.123 -16.58,-4.907 -18.37,-3.978c-2.964,1.652 -6.321,2.469 -9.713,2.363c-6.063,0 -12.251,-2.731 -12.251,-14.098c38.85,-3.853 41.819,-16.093 41.819,-25.103l0.006,0Zm-19.255,1.491c-0.249,2.793 -1.36,7.576 -21.034,10.256c4.136,-14.789 12.07,-15.9 15.713,-15.9c0.078,-0.004 0.157,-0.005 0.235,-0.005c2.826,-0 5.151,2.325 5.151,5.15c-0,0.171 -0.009,0.341 -0.025,0.51l-0.04,-0.011Zm-65.799,2.425l-9.033,28.514l-6.375,-49.508c-14.222,-0 -21.872,10.188 -25.861,20.932l-11.016,28.638l-1.547,-28.332c-0.839,-13.169 -12.863,-21.182 -22.581,-21.182l11.752,71.625c14.903,-0.057 22.95,-10.189 27.16,-20.932l9.316,-24.349c0.085,0.991 6.437,45.286 6.437,45.286c14.971,0 23.017,-9.502 27.329,-19.878l20.966,-51.746c-14.761,-0 -22.541,10.126 -26.559,20.932l0.012,-0Zm139.996,-22.666c-9.219,-0 -16.263,5.032 -22.213,12.421l0,-0.057l5.316,-43.048c-12.251,-0 -22.213,10.687 -24.128,26.587l-9.214,76.894c7.055,0 14.54,-2.051 18.563,-7.27c3.593,4.658 8.97,8.387 16.954,8.387c20.661,-0 34.832,-24.1 34.832,-46.715c-0.124,-20.626 -10.086,-27.142 -20.048,-27.142l-0.062,-0.057Zm-1.927,36.963c-2.153,12.607 -9.157,21.181 -15.894,21.181c-6.738,-0 -9.712,-3.043 -9.712,-3.043c1.303,-11.05 2.107,-17.827 4.578,-23.669c2.471,-5.842 8.352,-15.158 14.478,-15.158c6.006,0 8.726,8.013 6.556,20.683l-0.006,0.006Zm73.563,-35.286l-14.416,0l0.057,-0.748c0.992,-9.44 3.219,-14.41 10.562,-15.22c5.015,-0.499 7.242,-3.105 7.797,-5.961l1.797,-10.001c-28.899,-0.187 -38.045,12.353 -40.374,31.494l-0.057,0.436l-0.311,0c-4.704,0 -9.894,5.344 -10.767,12.115l-0.311,2.482l9.655,0l-8.103,67.205l-2.482,12.052c0.312,0 0.68,0.057 0.986,0.057c13.543,-0.499 22.213,-11.242 24.128,-26.836l6.324,-52.489l4.533,-0c4.454,-0 9.656,-4.477 10.563,-11.928l0.419,-2.658Zm74.979,-1.246c-16.643,-0 -32.356,12.296 -37.172,31.619c-4.817,19.322 2.482,42.175 26.972,42.175c24.491,0 38.515,-23.799 38.515,-43.609c0.023,-19.691 -13.271,-30.191 -28.309,-30.191l-0.006,0.006Zm6.743,35.903c-0.861,8.76 -4.703,22.054 -15.22,22.054c-10.517,-0 -9.095,-15.527 -8.075,-22.921c1.116,-7.888 5.508,-19.131 14.971,-19.131c8.511,0 9.31,10.127 8.33,20.003l-0.006,-0.005Zm103.81,-13.73l-9.032,28.513c-0.244,-2.238 -6.369,-49.508 -6.369,-49.508c-14.223,0 -21.839,10.189 -25.828,20.932l-11.016,28.639c-0.057,-2.052 -1.547,-28.333 -1.547,-28.333c-0.895,-13.169 -12.908,-21.181 -22.666,-21.181l11.69,71.624c14.903,-0.056 22.949,-10.188 27.16,-20.932l9.281,-24.349c0.057,0.992 6.437,45.287 6.437,45.287c14.971,0 22.984,-9.503 27.33,-19.878l20.983,-51.746c-14.722,-0 -22.519,10.126 -26.48,20.932l0.057,-0Zm-171.921,-52.869l-12.127,98.201l-2.481,12.115c0.306,-0 0.68,0.056 0.986,0.056c13.044,-0.187 22.325,-11.673 24.065,-26.151l6.987,-56.342c2.119,-17.209 -8.086,-27.89 -17.43,-27.89l-0,0.011Z" style="fill:#fff;fill-rule:nonzero;"/></svg>